<?xml version="1.0" encoding="UTF-8" standalone="no"?>
<svg
   xmlns:svg="http://www.w3.org/2000/svg"
   xmlns="http://www.w3.org/2000/svg"
   width="1920"
   height="1080"
   viewBox="0 0 508 285.75"
   version="1.1"
   id="logo-white-on-transparent">
  <defs
     id="defs5085" />
  <g
     id="logolayer"
     transform="translate(180.26252,-6.6047915)">
    <path
       style="fill:#ffffff;stroke-width:0.25"
       d="m -47.105925,285.5852 c -5.7258,-0.80399 -9.8654,-3.03467 -11.19042,-6.0301 -1.98926,-4.49704 -0.2421,-8.94831 4.62329,-11.77881 l 1.2775,-0.7432 -0.63191,-0.42126 c -2.36247,-1.57493 -3.41005,-3.30741 -3.41005,-5.63952 0,-2.7901 1.22027,-4.93538 4.34472,-7.63824 0.7391,-0.63937 1.34383,-1.24899 1.34383,-1.35471 0,-0.10572 -0.53491,-0.63912 -1.18869,-1.18533 -2.76631,-2.31119 -4.22234,-5.61627 -4.43,-10.05579 -0.21834,-4.66761 0.87975,-7.90992 3.63431,-10.73099 2.87834,-2.94785 7.19621,-4.35568 12.58981,-4.10488 1.7341,0.0806 7.0522,0.21588 11.818,0.30056 l 8.66511,0.15397 v 2.11939 2.11938 l -3.82975,-0.0727 c -2.10637,-0.04 -3.90999,0.007 -4.00806,0.10555 -0.0981,0.0981 0.14271,0.64153 0.53506,1.20769 1.35067,1.94902 1.81639,3.62026 1.95223,7.00559 0.0983,2.44994 0.0246,3.51416 -0.33902,4.89479 -1.32506,5.03111 -5.07392,8.44206 -10.63457,9.676 -2.40636,0.53398 -7.81212,0.54751 -10.00083,0.025 l -1.5864,-0.37871 -1.1468,1.11574 c -1.47654,1.43653 -1.89811,2.26629 -1.89811,3.73597 0,1.54253 0.37676,2.33216 1.4116,2.95842 0.7623,0.46133 1.60813,0.52183 9.43631,0.67496 4.72943,0.0925 9.19427,0.29383 9.92188,0.44737 3.11215,0.6567 5.53395,1.95107 6.95195,3.71559 2.47283,3.07711 2.57595,9.23846 0.2168,12.95372 -1.71044,2.69367 -5.36459,5.07912 -9.679,6.31854 -1.98797,0.5711 -2.88871,0.6582 -7.67621,0.74229 -2.98318,0.0524 -6.16584,-0.009 -7.07258,-0.13626 z m 11.90802,-3.59085 c 4.88968,-1.26706 7.31706,-3.89763 7.32958,-7.94314 0.008,-2.52917 -0.68641,-3.86397 -2.56039,-4.9227 -1.77399,-1.00224 -4.19398,-1.2596 -11.9021,-1.26577 l -5.86934,-0.005 -1.34823,1.31321 c -1.83689,1.78919 -2.64989,3.59865 -2.65321,5.90518 -0.003,2.01578 0.46216,3.38537 1.53281,4.51408 1.14017,1.20203 3.56288,2.24613 6.13752,2.64507 1.93089,0.29916 7.83695,0.14652 9.33336,-0.24122 z m -2.05981,-32.15459 c 3.20299,-1.50559 4.63032,-4.71981 4.62915,-10.42444 -10e-4,-4.89752 -1.88837,-8.39496 -5.26115,-9.74935 -1.64783,-0.66172 -4.97569,-0.50918 -6.54318,0.2999 -1.47711,0.76244 -3.02944,2.58887 -3.67067,4.31881 -0.73338,1.97858 -0.7686,8.41234 -0.0572,10.45009 0.97762,2.80033 2.51994,4.50698 4.82013,5.3337 1.4409,0.51788 4.7601,0.39308 6.08292,-0.22871 z M 263.77949,285.5852 c -5.7258,-0.80399 -9.86542,-3.03467 -11.19042,-6.0301 -1.98927,-4.49704 -0.2421,-8.94831 4.62327,-11.77881 l 1.27752,-0.7432 -0.63193,-0.42126 c -2.36244,-1.57493 -3.41003,-3.30741 -3.41003,-5.63952 0,-2.7901 1.22026,-4.93538 4.34472,-7.63824 0.73909,-0.63937 1.34382,-1.24899 1.34382,-1.35471 0,-0.10572 -0.53491,-0.63912 -1.1887,-1.18533 -2.76629,-2.31119 -4.22232,-5.61627 -4.42999,-10.05579 -0.21834,-4.66761 0.87976,-7.90992 3.63431,-10.73099 2.87835,-2.94785 7.19622,-4.35568 12.58981,-4.10488 1.73411,0.0806 7.05221,0.21588 11.81802,0.30056 l 8.6651,0.15397 v 2.11939 2.11938 l -3.82974,-0.0727 c -2.10637,-0.04 -3.90998,0.007 -4.00807,0.10555 -0.0981,0.0981 0.14272,0.64153 0.53507,1.20769 1.35067,1.94902 1.81639,3.62026 1.95223,7.00559 0.0983,2.44994 0.0246,3.51416 -0.33904,4.89479 -1.32506,5.03111 -5.07391,8.44206 -10.63455,9.676 -2.40636,0.53398 -7.81212,0.54751 -10.00084,0.025 l -1.58642,-0.37871 -1.14678,1.11574 c -1.47656,1.43653 -1.89812,2.2663 -1.89812,3.73597 0,1.54254 0.37677,2.33216 1.41161,2.95843 0.76229,0.46132 1.60813,0.52182 9.43632,0.67496 4.72942,0.0925 9.19427,0.29383 9.92187,0.44736 3.11216,0.6567 5.53395,1.95108 6.95196,3.71559 2.47282,3.07712 2.57595,9.23847 0.21679,12.95372 -1.71045,2.69367 -5.36458,5.07913 -9.67901,6.31854 -1.98795,0.57111 -2.88869,0.65821 -7.6762,0.74229 -2.98317,0.0524 -6.16586,-0.009 -7.07258,-0.13626 z m 11.90803,-3.59085 c 4.88968,-1.26706 7.31705,-3.89763 7.32957,-7.94314 0.008,-2.52917 -0.68641,-3.86397 -2.56038,-4.9227 -1.774,-1.00224 -4.19399,-1.2596 -11.90209,-1.26577 l -5.86937,-0.005 -1.34824,1.31321 c -1.83687,1.78919 -2.64988,3.59865 -2.65319,5.90518 -0.003,2.01578 0.46215,3.38537 1.53279,4.51408 1.14019,1.20203 3.5629,2.24613 6.13754,2.64507 1.93088,0.29916 7.83694,0.14652 9.33337,-0.24122 z m -2.05981,-32.15459 c 3.20299,-1.50559 4.63032,-4.71981 4.62915,-10.42444 0,-4.89752 -1.88838,-8.39496 -5.26116,-9.74935 -1.64782,-0.66172 -4.97567,-0.50918 -6.54318,0.2999 -1.47712,0.76244 -3.02945,2.58887 -3.67067,4.31881 -0.73337,1.97858 -0.76859,8.41234 -0.0572,10.45009 0.9776,2.80033 2.51994,4.50698 4.82013,5.3337 1.4409,0.51788 4.76012,0.39308 6.08293,-0.22871 z m -408.2496,17.86159 c -2.7627,-0.62436 -4.18703,-1.09194 -5.42396,-1.78058 -4.39345,-2.44595 -6.9789,-6.51048 -8.0744,-12.69357 -0.61331,-3.46157 -0.42952,-10.50584 0.34657,-13.28271 1.2146,-4.34594 2.43974,-6.52846 5.21852,-9.29651 2.4279,-2.41853 4.75139,-3.72914 7.94058,-4.47906 2.49752,-0.58727 7.75069,-0.38837 10.10045,0.38245 5.43249,1.78207 8.63178,6.22192 9.74621,13.52541 0.21094,1.38245 0.38424,3.31722 0.38509,4.29948 l 0.002,1.78594 h -13.3177 -13.31771 l 0.0979,2.18281 c 0.23893,5.32462 1.65746,9.68437 3.82212,11.74697 1.99999,1.90569 3.55124,2.49925 6.97207,2.66772 2.5761,0.12688 3.22402,0.0685 4.92312,-0.44391 2.27977,-0.68746 3.9903,-1.67216 6.15957,-3.54587 l 1.55712,-1.34497 1.14942,1.31393 c 0.63217,0.72267 1.15186,1.39269 1.15485,1.48894 0.0108,0.34732 -3.59203,3.4612 -5.37984,4.64974 -1.00565,0.66855 -2.8545,1.57862 -4.10856,2.02237 -2.05855,0.72841 -2.62721,0.81236 -5.85199,0.86391 -1.96453,0.0314 -3.81,0.003 -4.10104,-0.0625 z m 12.30312,-26.26699 c 0,-1.70737 -0.76331,-5.52651 -1.43487,-7.17923 -1.402,-3.45036 -3.19808,-4.7942 -6.64969,-4.97536 -1.90177,-0.0998 -2.361,-0.0313 -3.59624,0.5365 -3.85157,1.77046 -5.64253,4.97434 -6.65998,11.91416 l -0.10667,0.7276 h 9.22372 9.22373 z m 195.394795,26.26699 c -2.76269,-0.62436 -4.18702,-1.09194 -5.42395,-1.78058 -4.39345,-2.44595 -6.9789,-6.51048 -8.0744,-12.69357 -0.61331,-3.46157 -0.42952,-10.50584 0.34657,-13.28271 1.2146,-4.34594 2.43974,-6.52846 5.21852,-9.29651 2.4279,-2.41853 4.75139,-3.72914 7.94057,-4.47906 2.49753,-0.58727 7.75069,-0.38837 10.10046,0.38245 5.43248,1.78207 8.63177,6.22192 9.74619,13.52541 0.21096,1.38245 0.38426,3.31722 0.38511,4.29948 l 0.003,1.78594 h -13.3177 -13.3177 l 0.0979,2.18281 c 0.23893,5.32462 1.65746,9.68437 3.82212,11.74697 1.99998,1.90569 3.55124,2.49925 6.97206,2.66772 2.5761,0.12688 3.22402,0.0685 4.92312,-0.44391 2.27977,-0.68746 3.9903,-1.67216 6.15957,-3.54587 l 1.55712,-1.34497 1.14941,1.31393 c 0.63219,0.72267 1.15186,1.39269 1.15485,1.48894 0.0108,0.34732 -3.59201,3.4612 -5.37982,4.64974 -1.00566,0.66855 -2.85451,1.57862 -4.10856,2.02237 -2.05856,0.72841 -2.62722,0.81236 -5.852,0.86391 -1.96453,0.0314 -3.81,0.003 -4.10104,-0.0625 z m 12.30313,-26.26699 c 0,-1.70737 -0.76333,-5.52651 -1.43487,-7.17923 -1.40201,-3.45036 -3.19808,-4.7942 -6.64969,-4.97536 -1.90177,-0.0998 -2.361,-0.0313 -3.59624,0.5365 -3.85157,1.77046 -5.64253,4.97434 -6.65998,11.91416 l -0.10667,0.7276 h 9.22372 9.22373 z m 30.294785,26.26699 c -2.7627,-0.62436 -4.18703,-1.09194 -5.42396,-1.78058 -4.39343,-2.44595 -6.97889,-6.51048 -8.0744,-12.69357 -0.6133,-3.46157 -0.42952,-10.50584 0.34658,-13.28271 1.2146,-4.34594 2.43973,-6.52846 5.21851,-9.29651 2.4279,-2.41853 4.75139,-3.72914 7.94057,-4.47906 2.49754,-0.58727 7.75071,-0.38837 10.10047,0.38245 5.43248,1.78207 8.63177,6.22192 9.74619,13.52541 0.21095,1.38245 0.38426,3.31722 0.3851,4.29948 l 0.003,1.78594 h -13.3177 -13.31772 l 0.0979,2.18281 c 0.23894,5.32462 1.65748,9.68437 3.82214,11.74697 1.99999,1.90569 3.55124,2.49925 6.97206,2.66772 2.57609,0.12688 3.22401,0.0685 4.92311,-0.44391 2.27978,-0.68746 3.99031,-1.67216 6.15958,-3.54587 l 1.55712,-1.34497 1.1494,1.31393 c 0.6322,0.72267 1.15187,1.39269 1.15486,1.48894 0.0109,0.34732 -3.59201,3.4612 -5.37983,4.64974 -1.00565,0.66855 -2.85451,1.57862 -4.10855,2.02237 -2.05857,0.72841 -2.62721,0.81236 -5.85201,0.86391 -1.96453,0.0314 -3.81,0.003 -4.10104,-0.0625 z m 12.30312,-26.26699 c 0,-1.70737 -0.76332,-5.52651 -1.43486,-7.17923 -1.402,-3.45036 -3.1981,-4.7942 -6.64969,-4.97536 -1.90177,-0.0998 -2.36101,-0.0313 -3.59625,0.5365 -3.85156,1.77046 -5.64253,4.97434 -6.65998,11.91416 l -0.10668,0.7276 h 9.22374 9.22372 z m -234.42083,24.63369 c 0,-0.95435 0.0548,-1.01568 1.30243,-1.45881 1.4825,-0.52654 2.52096,-1.60911 2.91926,-3.04328 0.17221,-0.62004 0.27383,-6.21298 0.27475,-15.12179 10e-4,-13.83452 -0.0105,-14.1625 -0.55557,-15.28853 -0.59998,-1.2394 -1.74391,-2.00341 -3.49015,-2.331 -0.94719,-0.1777 -0.97988,-0.22127 -0.97988,-1.30595 v -1.12212 l 4.29948,-0.17983 c 2.36471,-0.0989 5.228915,-0.25323 6.364905,-0.34293 l 2.06542,-0.1631 -0.13336,0.6346 c -0.0733,0.34903 -0.20914,1.97405 -0.30178,3.61116 -0.19553,3.45551 -0.0592,3.61657 1.60841,1.89991 1.5685,-1.61465 4.54878,-3.81876 6.33755,-4.68702 2.49517,-1.21115 3.7896,-1.46329 6.82015,-1.32851 2.40842,0.10711 2.92,0.22064 4.50066,0.9988 2.64978,1.30449 4.03038,3.02827 5.09215,6.35797 0.40364,1.26581 0.48896,3.14252 0.65556,14.41979 0.12322,8.34084 0.29972,13.357 0.49488,14.06489 0.3639,1.3199 1.69405,2.57888 3.20201,3.03068 1.0009,0.29987 1.06272,0.37752 1.06272,1.33485 v 1.01645 h -8.33438 -8.33437 v -0.99623 c 0,-0.95435 0.0548,-1.01568 1.30243,-1.45881 1.48249,-0.52654 2.52095,-1.60911 2.91926,-3.04328 0.36115,-1.3004 0.3618,-21.31856 7.9e-4,-23.60584 -0.42666,-2.70302 -0.96178,-4.01822 -2.12072,-5.21226 -1.46564,-1.51003 -2.89513,-2.01708 -5.32663,-1.88938 -2.62067,0.13764 -4.09779,0.89486 -6.59087,3.37872 -3.09612,3.08467 -3.0181,2.68284 -3.00908,15.49687 0.008,11.83743 0.0907,12.5475 1.61108,13.88238 0.48743,0.42797 1.36446,0.92141 1.94896,1.09653 1.0009,0.29987 1.06272,0.37752 1.06272,1.33485 v 1.01645 h -8.33438 -8.334375 v -0.99623 z m 91.810425,0 c 0,-0.95435 0.0547,-1.01568 1.30243,-1.45881 1.48249,-0.52654 2.52095,-1.60911 2.91926,-3.04328 0.1722,-0.62004 0.27382,-6.21298 0.27475,-15.12179 0.001,-13.83452 -0.0105,-14.1625 -0.55558,-15.28853 -0.59998,-1.2394 -1.74391,-2.00341 -3.49014,-2.331 -0.9472,-0.1777 -0.97989,-0.22127 -0.97989,-1.30595 v -1.12212 l 4.29948,-0.17766 c 2.3647198,-0.0977 5.1501898,-0.24965 6.1899498,-0.33763 l 1.89047,-0.15996 0.12547,17.56263 c 0.097,13.57184 0.20465,17.79168 0.47389,18.57065 0.42967,1.24312 1.74701996,2.43625 3.15593996,2.85838 1.00090004,0.29987 1.06272004,0.37752 1.06272004,1.33485 v 1.01645 h -8.33437 -8.3343798 z m 24.6062498,0 c 0,-0.95435 0.0548,-1.01568 1.3024302,-1.45881 1.48249,-0.52654 2.52095,-1.60911 2.91926,-3.04328 0.1722,-0.62004 0.27382,-6.21298 0.27475,-15.12179 10e-4,-13.83452 -0.0105,-14.1625 -0.55558,-15.28853 -0.59998,-1.2394 -1.74391,-2.00341 -3.49014,-2.331 -0.9472002,-0.1777 -0.9798902,-0.22127 -0.9798902,-1.30595 v -1.12212 l 4.2994802,-0.17983 c 2.36472,-0.0989 5.22892,-0.25323 6.3649,-0.34293 l 2.06542,-0.1631 -0.13335,0.6346 c -0.0733,0.34903 -0.20914,1.97405 -0.30178,3.61116 -0.19554,3.45551 -0.0592,3.61657 1.60841,1.89991 1.5685,-1.61465 4.54877,-3.81876 6.33755,-4.68702 2.49517,-1.21115 3.7896,-1.46329 6.82015,-1.32851 2.40842,0.10711 2.91999,0.22064 4.50065,0.9988 2.64979,1.30449 4.03039,3.02827 5.09215,6.35797 0.40364,1.26581 0.48896,3.14252 0.65557,14.41979 0.12322,8.34084 0.29971,13.357 0.49488,14.06489 0.36389,1.3199 1.69405,2.57888 3.202,3.03068 1.0009,0.29987 1.06272,0.37752 1.06272,1.33485 v 1.01645 h -8.33437 -8.33438 v -0.99623 c 0,-0.95435 0.0547,-1.01568 1.30243,-1.45881 1.4825,-0.52654 2.52096,-1.60911 2.91926,-3.04328 0.36116,-1.3004 0.36181,-21.31856 8e-4,-23.60584 -0.42667,-2.70302 -0.96179,-4.01822 -2.12073,-5.21226 -1.46563,-1.51003 -2.89513,-2.01708 -5.32663,-1.88938 -2.62066,0.13764 -4.09779,0.89486 -6.59086,3.37872 -3.09613,3.08467 -3.0181,2.68284 -3.00908,15.49687 0.008,11.83743 0.0907,12.5475 1.61108,13.88238 0.48743,0.42797 1.36446,0.92141 1.94896,1.09653 1.0009,0.29987 1.06272,0.37752 1.06272,1.33485 v 1.01645 h -8.33438 -8.3343702 v -0.99623 z m 133.8791552,0 c 0,-0.95435 0.0547,-1.01568 1.30244,-1.45881 1.48249,-0.52654 2.52095,-1.60911 2.91926,-3.04328 0.17219,-0.62004 0.27381,-6.21298 0.27474,-15.12179 0.003,-13.83452 -0.0106,-14.1625 -0.55557,-15.28853 -0.59997,-1.2394 -1.74393,-2.00341 -3.49015,-2.331 -0.94721,-0.1777 -0.97988,-0.22127 -0.97988,-1.30595 v -1.12212 l 4.29948,-0.17983 c 2.36471,-0.0989 5.23094,-0.2534 6.36942,-0.34331 l 2.06996,-0.16347 -0.14065,0.89956 c -0.33644,2.15158 -0.46532,6.85268 -0.18788,6.85268 0.15626,0 1.1848,-0.94272 2.2856,-2.09493 2.24346,-2.34819 4.57843,-3.98841 6.89692,-4.84476 1.26844,-0.46852 2.28389,-0.59471 5.46079,-0.67865 l 3.90261,-0.10311 v 4.91906 4.91906 h -2.35599 -2.356 l -0.81394,-1.44223 c -1.13774,-2.01596 -2.35942,-2.79179 -4.39121,-2.78863 -1.99464,0.003 -3.72571,0.92256 -5.5435,2.94437 -1.79626,1.99787 -2.50335,3.55654 -2.8402,6.26078 -0.36912,2.96317 -0.11517,19.58161 0.32203,21.07475 0.43685,1.49187 1.69357,2.63781 3.36058,3.06434 1.37051,0.35066 1.38906,0.36886 1.38906,1.36372 v 1.00831 h -8.59896 -8.59896 z m 35.98334,0 c 0,-0.95435 0.0547,-1.01568 1.30243,-1.45881 1.48249,-0.52654 2.52095,-1.60911 2.91926,-3.04328 0.17219,-0.62004 0.27382,-6.21298 0.27474,-15.12179 0.003,-13.83452 -0.0106,-14.1625 -0.55557,-15.28853 -0.59997,-1.2394 -1.74392,-2.00341 -3.49015,-2.331 -0.9472,-0.1777 -0.97988,-0.22127 -0.97988,-1.30595 v -1.12212 l 4.29948,-0.17766 c 2.36471,-0.0977 5.15019,-0.24965 6.18995,-0.33763 l 1.89048,-0.15996 0.12546,17.56263 c 0.097,13.57184 0.20463,17.79168 0.4739,18.57065 0.42965,1.24312 1.74702,2.43625 3.15592,2.85838 1.00092,0.29987 1.06273,0.37752 1.06273,1.33485 v 1.01645 h -8.33438 -8.33437 z m 24.34166,0 c 0,-0.95435 0.0548,-1.01568 1.30244,-1.45881 1.48249,-0.52654 2.52095,-1.60911 2.91926,-3.04328 0.17219,-0.62004 0.27381,-6.21298 0.27474,-15.12179 0.003,-13.83452 -0.0106,-14.1625 -0.55557,-15.28853 -0.59997,-1.2394 -1.74393,-2.00341 -3.49015,-2.331 -0.94721,-0.1777 -0.97988,-0.22127 -0.97988,-1.30595 v -1.12212 l 4.29948,-0.17983 c 2.36471,-0.0989 5.2289,-0.25323 6.36489,-0.34293 l 2.06542,-0.1631 -0.13335,0.6346 c -0.0733,0.34903 -0.20915,1.97405 -0.30179,3.61116 -0.19552,3.45551 -0.0592,3.61657 1.60843,1.89991 1.56848,-1.61465 4.54877,-3.81876 6.33754,-4.68702 2.49518,-1.21115 3.7896,-1.46329 6.82014,-1.32851 2.40842,0.10711 2.91999,0.22064 4.50067,0.9988 2.64977,1.30449 4.03037,3.02827 5.09214,6.35797 0.40365,1.26581 0.48895,3.14252 0.65556,14.41979 0.12322,8.34084 0.29972,13.357 0.4949,14.06489 0.36389,1.3199 1.69405,2.57888 3.20199,3.03068 1.00092,0.29987 1.06273,0.37752 1.06273,1.33485 v 1.01645 h -8.33438 -8.33437 v -0.99623 c 0,-0.95435 0.0547,-1.01568 1.30243,-1.45881 1.48249,-0.52654 2.52095,-1.60911 2.91926,-3.04328 0.36115,-1.3004 0.36182,-21.31856 0,-23.60584 -0.42667,-2.70302 -0.96179,-4.01822 -2.12072,-5.21226 -1.46566,-1.51003 -2.89515,-2.01708 -5.32664,-1.88938 -2.62067,0.13764 -4.09779,0.89486 -6.59088,3.37872 -3.0961,3.08467 -3.01807,2.68284 -3.00905,15.49687 0.008,11.83743 0.0907,12.5475 1.61107,13.88238 0.48742,0.42797 1.36446,0.92141 1.94895,1.09653 1.00092,0.29987 1.06273,0.37752 1.06273,1.33485 v 1.01645 h -8.33438 -8.33437 v -0.99623 z M -10.400015,213.75074 v -4.10104 h 3.9687498 3.96875 v 4.10104 4.10104 h -3.96875 -3.9687498 z m 194.468745,0 v -4.10104 h 3.96875 3.96875 v 4.10104 4.10104 h -3.96875 -3.96875 z m -306.2552,-14.42643 c -16.52179,-3.00215 -26.32605,-14.59158 -26.32605,-31.11951 0,-12.50152 5.45317,-21.90402 16.89045,-29.12296 11.93038,-7.53017 30.22214,-12.07934 55.605395,-13.82911 2.11005,-0.14546 4.28294,-0.26564 4.82864,-0.26708 l 0.99219,-0.003 -0.005,-5.22552 c -0.006,-6.43001 -0.40015,-13.82127 -0.93385,-17.52302 -1.58254,-10.976465 -5.57784,-17.954065 -12.15794,-21.233245 -4.13633,-2.06134 -7.50966,-2.72353 -13.75834,-2.70082 -3.722405,0.0136 -4.949835,0.12155 -7.119015,0.62647 -8.8416,2.05806 -14.89448,8.11376 -18.66307,18.67177 l -0.9444,2.645825 -8.92791,0.0697 -8.9279,0.0697 v -8.829805 -8.8298 l 5.35781,-2.66207 c 8.82438,-4.38444 12.4249,-5.90959 19.9099,-8.43366 6.50496,-2.19358 12.08515,-3.5918 18.437455,-4.61982 4.77015,-0.77198 5.59499,-0.82933 12.38651,-0.86124 7.89578,-0.0371 10.65214,0.24052 15.53303,1.56443 11.50506,3.12069 18.86409,11.22394 21.37513,23.53681 1.23582,6.05983 1.21739,5.5021 1.4514,43.920825 0.14399,23.63871 0.32784,37.53867 0.52146,39.42292 0.60352,5.87354 1.82593,9.31205 4.12936,11.61547 1.47962,1.47963 4.98644,3.24644 8.51722,4.29116 l 2.4474,0.72416 v 3.26012 3.26013 h -18.5583 -18.55831 l 0.16677,-3.10885 c 0.0917,-1.70987 0.2347,-5.78777 0.31773,-9.06198 0.083,-3.27422 0.20215,-6.20686 0.26473,-6.51698 0.0953,-0.47251 -0.0638,-0.60892 -0.98218,-0.84204 l -1.09596,-0.27818 -3.06838,2.97551 c -11.23254,10.89257 -21.05495,16.39885 -32.863395,18.42267 -4.12235,0.70651 -12.32903,0.70182 -16.24248,-0.009 z m 25.664585,-15.23801 c 6.49387,-1.22096 12.30008,-4.32833 17.17983,-9.19432 4.2942,-4.28209 7.05442,-9.05513 8.51211,-14.71936 0.36847,-1.43179 0.46268,-3.59182 0.56258,-12.89844 l 0.12,-11.17865 h -2.60844 c -1.43465,0 -4.51141,0.12405 -6.83726,0.27566 -18.7554,1.22258 -31.243515,4.98142 -38.585505,11.61398 -1.32175,1.19404 -3.13372,3.55818 -4.27593,5.57895 -3.47067,6.14024 -3.56107,16.12822 -0.20089,22.1955 1.39064,2.511 4.25611,5.26452 6.68662,6.42539 4.86897,2.32552 12.9753,3.11806 19.446885,1.90129 z m 187.32499,15.23801 c -16.52178,-3.00215 -26.32603,-14.59158 -26.32603,-31.11951 0,-12.50152 5.45317,-21.90402 16.89044,-29.12296 11.93038,-7.53017 30.222125,-12.07934 55.605385,-13.82911 2.11005,-0.14546 4.28294,-0.26564 4.82864,-0.26708 l 0.99219,-0.003 -0.005,-5.22552 c -0.006,-6.43001 -0.40015,-13.82127 -0.93384,-17.52302 -1.58256,-10.976465 -5.57784,-17.954065 -12.15795,-21.233245 -4.13634,-2.06133 -7.50964,-2.72353 -13.75834,-2.70081 -3.72239,0.0136 -4.94982,0.12154 -7.11901,0.62646 -8.841595,2.05806 -14.894475,8.11376 -18.663065,18.67177 l -0.9444,2.645825 -8.9279,0.0697 -8.92791,0.0697 v -8.829805 -8.8298 l 5.35782,-2.66207 c 8.82438,-4.38444 12.42491,-5.90959 19.90989,-8.43366 6.504965,-2.19358 12.085155,-3.59179 18.437455,-4.61982 4.77015,-0.77198 5.59499,-0.82933 12.3865,-0.86124 7.89577,-0.0371 10.65215,0.24052 15.53303,1.56443 11.50506,3.12069 18.8641,11.22394 21.37513,23.53681 1.23581,6.05983 1.2174,5.5021 1.4514,43.920825 0.14398,23.63871 0.32784,37.53867 0.52146,39.42292 0.60352,5.87354 1.82592,9.31205 4.12936,11.61547 1.47962,1.47963 4.98644,3.24644 8.51722,4.29116 l 2.4474,0.72416 v 3.26012 3.26013 h -18.55833 -18.55829 l 0.16676,-3.10885 c 0.0917,-1.70987 0.23469,-5.78776 0.31772,-9.06198 0.083,-3.27422 0.20216,-6.20686 0.26474,-6.51698 0.0953,-0.47251 -0.0638,-0.60892 -0.98219,-0.84204 l -1.09596,-0.27818 -3.06837,2.97551 c -11.23254,10.89257 -21.05496,16.39885 -32.86339,18.42267 -4.12234,0.70652 -12.329025,0.70182 -16.242475,-0.009 z M 116.46769,184.0863 c 6.49385,-1.22096 12.30008,-4.32833 17.17982,-9.19432 4.29421,-4.28209 7.05442,-9.05513 8.51212,-14.71936 0.36846,-1.43179 0.46268,-3.59182 0.56258,-12.89844 l 0.11999,-11.17865 h -2.60845 c -1.43462,0 -4.51141,0.12405 -6.83725,0.27566 -18.75539,1.22258 -31.24351,4.98142 -38.585485,11.61398 -1.32175,1.19404 -3.13372,3.55818 -4.27593,5.57895 -3.47067,6.14024 -3.56108,16.12822 -0.2009,22.1955 1.39065,2.511 4.25612,5.26452 6.68663,6.42539 4.868965,2.32552 12.975295,3.11806 19.446875,1.90129 z m 117.60729,15.59756 c -7.4064,-0.54757 -18.63407,-2.38149 -27.30106,-4.45934 -2.71904,-0.65188 -5.01099,-1.18524 -5.09323,-1.18524 -0.0822,0 -0.14946,-6.42937 -0.14946,-14.2875 v -14.2875 h 6.57961 6.57963 l 1.00314,2.84427 c 2.79302,7.91923 6.79696,13.52306 11.89908,16.65369 4.43997,2.72434 9.26756,3.97843 16.27187,4.22703 11.20307,0.39762 19.5801,-2.65866 23.88765,-8.71519 0.64477,-0.90659 1.35861,-2.01143 1.58629,-2.4552 2.55849,-4.98669 2.49034,-14.65526 -0.13973,-19.82453 -1.49413,-2.93657 -4.67488,-6.14846 -8.70173,-8.78689 -3.1043,-2.03397 -11.69017,-6.25451 -19.80748,-9.73674 -14.41354,-6.18325 -21.71059,-10.44745 -27.14405,-15.86229 -6.28274,-6.26121 -9.0932,-12.71083 -9.13217,-20.95709 -0.0254,-5.384005 0.66275,-9.343745 2.33841,-13.454765 4.44696,-10.9101 14.80738,-18.39472 30.01325,-21.68233 6.11185,-1.32142 9.17517,-1.57851 18.87352,-1.58398 9.46028,-0.005 14.47431,0.32355 22.14677,1.45269 4.16269,0.61262 14.74732,2.52785 14.91899,2.69951 0.0595,0.0595 0.10821,6.31931 0.10821,13.91064 v 13.80243 l -6.54844,-0.004 -6.54843,-0.004 -0.93361,-2.31079 c -2.10905,-5.22006 -4.2341,-8.53734 -7.66676,-11.96808 -5.27918,-5.27621 -10.78254,-7.10552 -20.90069,-6.94735 -11.86203,0.18542 -19.7826,5.02299 -22.4079,13.68585 -0.37529,1.23837 -0.47691,2.46591 -0.47099,5.68855 0.007,3.864375 0.0544,4.243935 0.79375,6.365565 1.65873,4.76013 5.59385,8.85774 11.93922,12.43218 2.79003,1.57167 10.14262,5.0668 17.6339,8.38245 15.17799,6.71782 22.64196,11.26378 28.20755,17.17993 6.24885,6.64244 8.47241,12.88676 8.14147,22.86315 -0.20772,6.26141 -1.01536,10.37787 -2.862,14.58703 -4.43304,10.10463 -13.28708,16.87971 -25.89375,19.81379 -1.23692,0.28788 -4.33255,0.8471 -6.87916,1.24272 -4.32255,0.6715 -5.23674,0.72163 -13.75834,0.75442 -5.02047,0.0193 -9.78297,-0.0133 -10.58333,-0.0725 z m -245.268745,-5.19317 v -3.25275 l 2.3151098,-0.74231 c 7.08534,-2.27182 9.77779996,-4.87053 11.16296,-10.77432 1.18522,-5.05156 1.20663,-5.90278 1.20042,-47.72682 -0.005,-36.075105 -0.0471,-39.960305 -0.45818,-42.684785 -0.83041,-5.50295 -2.34088004,-8.39924 -5.42998,-10.41187 -1.86001,-1.21184 -4.97796,-2.34514 -8.3768598,-3.04477 l -2.26555,-0.46634 v -3.64455 -3.64455 l 1.65365,-0.003 c 0.9095,-0.002 7.4281698,-0.23782 14.4859298,-0.52482 7.0577602,-0.28701 15.3028402,-0.52379 18.3224002,-0.52618 l 5.4901,-0.004 v 51.805445 c 0,51.90018 0.0716,56.54485 0.93603,60.74987 1.16419,5.66302 4.49412,8.76666 11.69783,10.90284 l 2.44739,0.72576 v 3.26012 3.26013 h -26.59062 -26.59063 z M 2.5645748,28.145535 v -13.22916 h 12.5677102 12.5677 v 13.22916 13.22917 H 15.132285 2.5645748 Z"
       id="logopath" />
  </g>
</svg>
